<svg xmlns="http://www.w3.org/2000/svg" width="30" height="34" fill="currentColor" viewBox="0 0 30 34">
  <path d="M13.418.428a3.14 3.14 0 0 1 3.164 0l11.842 6.906A3.19 3.19 0 0 1 30 10.086v13.827c0 .558-.146 1.106-.422 1.588a3.17 3.17 0 0 1-1.154 1.164l-11.842 6.907a3.14 3.14 0 0 1-3.164 0L1.576 26.666a3.17 3.17 0 0 1-1.154-1.164A3.199 3.199 0 0 1 0 23.914V10.085C0 9.53.146 8.981.423 8.5a3.17 3.17 0 0 1 1.153-1.164L13.418.428Zm-10.26 9.658v.008l10.266 5.987c.48.28.877.68 1.154 1.164.277.483.422 1.031.422 1.589v11.985l11.842-6.905V10.085L15 3.181 3.158 10.086Zm2.577 7.391c0-.878-.613-1.947-1.368-2.386C3.613 14.653 3 15.01 3 15.887s.613 1.946 1.367 2.385c.755.44 1.368.083 1.368-.795Zm4.1 10.335c.755.438 1.368.084 1.368-.796 0-.877-.613-1.946-1.368-2.385-.754-.44-1.367-.083-1.367.795s.613 1.947 1.367 2.386Zm-5.468-3.178c.755.439 1.368.083 1.368-.795s-.613-1.947-1.368-2.386C3.613 21.014 3 21.37 3 22.248s.613 1.947 1.367 2.386Zm5.468-3.18c.755.44 1.368.083 1.366-.796 0-.878-.611-1.945-1.367-2.386-.755-.439-1.368-.082-1.368.796 0 .879.613 1.946 1.37 2.385Zm9.74-10.816c.756-.439.756-1.151 0-1.59-.754-.439-1.98-.439-2.734 0-.756.439-.756 1.151 0 1.59.755.44 1.98.44 2.735 0Zm-7.578-1.59c.755.439.755 1.151 0 1.59-.755.44-1.98.44-2.735 0-.755-.439-.755-1.151 0-1.59.755-.439 1.98-.439 2.735 0Zm9.31 13.28c.945-.55 1.71-1.885 1.71-2.982 0-1.098-.765-1.543-1.707-.994-.943.549-1.71 1.883-1.71 2.982 0 1.097.765 1.543 1.708.994Z"/>
</svg>
