<svg width="325" height="42" viewBox="0 0 325 42" fill="none" xmlns="http://www.w3.org/2000/svg">
<g clip-path="url(#clip0_190_82)">
<path d="M78.785 37.3544V5.67603H98.9047V10.1154H83.723V19.2162H97.6263V23.6556H83.723V32.9308H99.1444V37.3702H78.801L78.785 37.3544Z" fill="white"/>
<path d="M53.3117 37.3544V5.67603H73.4314V10.1154H58.2498V19.2162H72.153V23.6556H58.2498V32.9308H73.6711V37.3702H53.3277L53.3117 37.3544Z" fill="white"/>
<path d="M24.4984 37.3544V5.67603H37.9063C39.8879 5.67603 41.6138 6.02484 43.1 6.72246C44.6182 7.38837 45.7848 8.35553 46.6158 9.62393C47.4627 10.8923 47.8942 12.3986 47.8942 14.1426V14.6341C47.8942 16.6319 47.4148 18.2174 46.44 19.4382C45.4971 20.6115 44.3465 21.4518 42.9722 21.9274V22.6568C44.1228 22.7202 45.0497 23.1166 45.7528 23.83C46.456 24.5277 46.8075 25.5265 46.8075 26.8584V37.3544H41.8375V27.5401C41.8375 26.7315 41.6298 26.0815 41.1983 25.59C40.7668 25.1143 40.0956 24.8606 39.1528 24.8606H29.4365V37.3544H24.5144H24.4984ZM29.4205 20.4212H37.3629C39.1208 20.4212 40.4952 19.9773 41.47 19.1052C42.4448 18.2015 42.9242 16.9807 42.9242 15.4427V15.0781C42.9242 13.5401 42.4448 12.3351 41.47 11.4631C40.5271 10.5594 39.1528 10.0996 37.3629 10.0996H29.4205V20.4212Z" fill="white"/>
<path d="M0 37.3544V5.67603H19.7042V10.1154H4.92206V19.2479H18.5057V23.6874H4.92206V37.3544H0Z" fill="white"/>
<path d="M313.238 37.9888C310.841 37.9888 308.7 37.5607 306.846 36.7204C304.992 35.8801 303.538 34.6434 302.467 33.0103C301.428 31.3455 300.917 29.3478 300.917 26.9854V25.8597H305.791V26.9854C305.791 29.221 306.462 30.8857 307.805 32.0114C309.179 33.1213 310.985 33.6921 313.238 33.6921C315.491 33.6921 317.233 33.2323 318.384 32.2968C319.535 31.3297 320.11 30.093 320.11 28.5868C320.11 27.5879 319.838 26.7793 319.295 26.1451C318.752 25.5109 317.968 25.0194 316.962 24.6547C315.955 24.2583 314.756 23.8937 313.366 23.5766L311.672 23.1643C309.627 22.6887 307.853 22.0862 306.335 21.4044C304.848 20.6751 303.698 19.7238 302.867 18.5505C302.052 17.3772 301.636 15.871 301.636 14.0318C301.636 12.1926 302.1 10.5596 303.011 9.22775C303.953 7.89593 305.248 6.88121 306.878 6.15187C308.524 5.42254 310.458 5.07373 312.663 5.07373C314.868 5.07373 316.85 5.45425 318.592 6.19944C320.35 6.96048 321.74 8.07033 322.747 9.54485C323.754 11.0194 324.249 12.8744 324.249 15.11V16.743H319.375V15.11C319.375 13.7464 319.087 12.6524 318.512 11.8121C317.968 10.9718 317.185 10.3535 316.179 9.95708C315.172 9.56071 314.005 9.37045 312.663 9.37045C310.713 9.37045 309.195 9.78268 308.108 10.5913C307.038 11.3682 306.51 12.478 306.51 13.8891C306.51 14.8563 306.734 15.649 307.197 16.2832C307.677 16.8857 308.38 17.3772 309.291 17.7736C310.202 18.17 311.336 18.5188 312.711 18.8201L314.405 19.2323C316.466 19.6921 318.304 20.2787 319.886 20.9922C321.468 21.6898 322.715 22.6411 323.626 23.8461C324.537 25.0511 325 26.6049 325 28.5075C325 30.4101 324.521 32.059 323.546 33.486C322.603 34.8971 321.245 36.0228 319.487 36.8314C317.729 37.6083 315.635 38.0046 313.238 38.0046V37.9888Z" fill="white"/>
<path d="M276.898 37.3544V5.67603H297.002V10.1154H281.82V19.2162H295.723V23.6556H281.82V32.9308H297.241V37.3702H276.898V37.3544Z" fill="white"/>
<path d="M237.042 37.3544V5.67603H246.295L253.279 34.0883H254.014L260.997 5.67603H270.25V37.3544H265.456V9.11657H264.721L257.785 37.3544H249.491L242.555 9.11657H241.82V37.3544H237.026H237.042Z" fill="white"/>
<path d="M205.848 37.3544L214.973 5.67603H223.634L232.711 37.3544H227.645L225.552 29.8867H213.055L210.962 37.3544H205.848ZM214.286 25.3521H224.321L219.671 8.70434H218.936L214.286 25.3521Z" fill="white"/>
<path d="M189.148 37.9888C186.863 37.9888 184.833 37.5131 183.043 36.546C181.253 35.5471 179.831 34.1043 178.808 32.2017C177.77 30.2991 177.258 27.9843 177.258 25.2413V17.8212C177.258 13.683 178.393 10.5437 180.678 8.37158C182.963 6.16773 186.048 5.07373 189.931 5.07373C193.814 5.07373 196.707 6.12016 198.784 8.19717C200.846 10.2425 201.884 13.0013 201.884 16.4735V16.6955H197.01V16.3308C197.01 15.0307 196.755 13.8733 196.227 12.8427C195.716 11.7804 194.933 10.956 193.894 10.3535C192.855 9.75097 191.545 9.44972 189.931 9.44972C187.502 9.44972 185.6 10.1949 184.226 11.6694C182.851 13.1122 182.18 15.1417 182.18 17.7261V25.3206C182.18 27.8891 182.867 29.9186 184.226 31.4248C185.6 32.8993 187.518 33.6445 189.979 33.6445C192.44 33.6445 194.198 32.9786 195.316 31.6468C196.435 30.315 197.01 28.6026 197.01 26.4939V25.9073H188.429V21.7057H201.884V37.3546H197.33V34.136H196.595C196.323 34.7068 195.908 35.2934 195.364 35.8959C194.853 36.4984 194.086 36.9899 193.079 37.3863C192.104 37.7827 190.794 37.9729 189.148 37.9729V37.9888Z" fill="white"/>
<path d="M160.99 8.94224C158.561 6.67497 156.132 4.39185 153.703 2.12458C152.216 0.745187 150.379 0.0317101 148.253 0.015855C147.47 0.015855 146.671 0.015855 145.872 0.015855H144.785L138.984 0C134.638 0 130.275 0 125.928 0C121.326 0 117.874 3.44054 117.858 8.0068C117.858 14.4915 117.858 20.9604 117.858 27.4451C117.858 28.8403 118.193 30.1404 118.849 31.282C118.257 31.5357 117.682 31.8686 117.139 32.3126L115.684 33.248C114.23 34.1835 112.776 35.1189 111.338 36.0544C110.155 36.8313 109.628 38.1472 109.979 39.5108C110.331 40.8584 111.386 41.7622 112.84 41.9207C113.048 41.9366 113.239 41.9524 113.559 41.9366H154.534C154.757 41.9683 154.997 42 155.221 42H159.168C161.453 42 163.307 40.1608 163.307 37.8935V34.8811C163.307 34.675 163.323 34.4689 163.323 34.2627C163.339 27.6195 163.323 20.9604 163.323 14.3171C163.323 12.2242 162.508 10.3692 160.99 8.94224Z" fill="#FFFAFD"/>
<path d="M161.309 14.3172C161.309 12.7792 160.75 11.4474 159.599 10.3851C157.17 8.11783 154.741 5.83471 152.312 3.56744C151.162 2.48929 149.787 1.99779 148.221 1.98193C147.071 1.98193 145.936 1.98193 144.785 1.98193C138.505 1.98193 132.209 1.98193 125.928 1.98193C122.396 1.98193 119.855 4.50289 119.855 8.00685C119.855 14.4916 119.855 20.9604 119.855 27.4451C119.855 29.2367 120.543 30.743 121.917 31.9162C122.284 32.2333 122.7 32.4712 123.179 32.82C122.732 32.82 122.396 32.8517 122.061 32.82C120.638 32.6297 119.408 33.0578 118.321 33.9457C118.257 33.9933 118.193 34.025 118.13 34.0567C116.228 35.2775 114.326 36.4984 112.44 37.735C111.977 38.0363 111.785 38.4961 111.929 39.0352C112.073 39.6059 112.488 39.8913 113.064 39.9706C113.223 39.9865 113.399 39.9706 113.575 39.9706H154.741C154.901 40.0023 155.061 40.034 155.237 40.034H159.184C160.367 40.034 161.325 39.0827 161.325 37.9095V34.7384C161.325 34.5799 161.341 34.4213 161.341 34.2628C161.357 27.6195 161.341 20.9763 161.341 14.3172H161.309ZM122.332 27.4134V7.86415C122.332 5.85056 123.771 4.43946 125.816 4.43946C129.572 4.43946 133.327 4.43946 137.067 4.43946C140.806 4.43946 144.498 4.43946 148.205 4.43946C150.267 4.43946 151.721 5.86642 151.721 7.91172C151.721 14.4123 151.721 20.897 151.721 27.3976C151.721 29.427 150.267 30.9015 148.221 30.9015C140.758 30.9015 133.279 30.9015 125.816 30.9015C123.755 30.9015 122.316 29.4429 122.316 27.4134H122.332ZM149.372 37.5131C138.888 37.5131 128.389 37.5131 117.906 37.5131H117.474C117.474 37.5131 117.458 37.4338 117.442 37.4021C118.321 36.8313 119.232 36.2764 120.095 35.6898C120.543 35.3726 121.006 35.2775 121.565 35.2775C131.841 35.2775 142.133 35.2775 152.408 35.2775H153.063C153.063 35.2775 153.063 35.3092 153.079 35.3251V35.3885C152.009 36.0703 150.954 36.7679 149.867 37.4497C149.739 37.5289 149.548 37.5131 149.372 37.5131Z" fill="black"/>
<path d="M148.573 26.6682C147.294 26.6682 146.032 26.6682 144.753 26.6682C143.475 26.6682 142.165 26.6682 140.87 26.6682C139.975 26.6682 139.432 27.1122 139.416 27.8732C139.416 28.6501 139.943 29.1257 140.87 29.1257C143.443 29.1257 146 29.1257 148.573 29.1257C149.484 29.1257 150.059 28.6184 150.043 27.8573C150.027 27.1122 149.468 26.6682 148.573 26.6682Z" fill="black"/>
<path d="M148.924 6.07251H125.129C124.522 6.07251 124.026 6.56402 124.026 7.16651V24.29C124.026 24.8924 124.522 25.3839 125.129 25.3839H148.924C149.532 25.3839 150.027 24.8924 150.027 24.29V7.16651C150.027 6.56402 149.532 6.07251 148.924 6.07251Z" fill="black"/>
</g>
<defs>
<clipPath id="clip0_190_82">
<rect width="325" height="42" fill="white"/>
</clipPath>
</defs>
</svg>
